<?xml version="1.0" encoding="utf-8"?>
<!-- Generator: Adobe Illustrator 22.0.1, SVG Export Plug-In . SVG Version: 6.00 Build 0)  -->
<svg version="1.1" xmlns="http://www.w3.org/2000/svg" xmlns:xlink="http://www.w3.org/1999/xlink" x="0px" y="0px"
	 viewBox="0 0 1920 1080" style="enable-background:new 0 0 1920 1080;" xml:space="preserve">
<style type="text/css">
	.st0{fill:#FFFFFF;}
	.st1{fill:#202020;}
	.st2{fill:none;}
	.st3{font-family:'18thCentury';}
	.st4{font-size:72px;}
	.st5{letter-spacing:24;}
</style>
<g id="pyramid">
	<g>
		<polygon class="st0" points="956.5,141.5 1387.5,865.5 519.5,865.5 		"/>
		<g>
			<g>
				<g>
					<g>
						<path class="st1" d="M741.6,484.1c-0.7,0.9-0.9,1.1-1.1,1.1c-0.4,0.8-0.8,1.6-1.3,2.4L741.6,484.1z"/>
						<path class="st1" d="M860.6,256.3c0.1-0.1,0.1-0.2,0.2-0.4c-0.4,0.3-0.8,0.8-1.1,0.8C859.8,257.3,859.8,257.3,860.6,256.3z"/>
						<path class="st1" d="M830.5,313.6c-0.7,0.9-1.4,1.8-2.1,2.5C828.6,316.2,829.5,315.1,830.5,313.6z"/>
						<path class="st1" d="M760.7,454.4c-1.7,2.3-3.4,4.7-5.2,7.1C756.4,460.9,758.5,458.3,760.7,454.4z"/>
						<path class="st1" d="M835.6,306.5c-1.4,1.8-3.5,4.9-5.1,7.1C832.2,311.5,833.9,309.1,835.6,306.5z"/>
						<path class="st1" d="M923.3,151.9c-1.1,1.4-2.2,3-3.4,4.7c0,0.2-0.1,0.5,0.1,0.6L923.3,151.9z"/>
						<path class="st1" d="M948.7,163.6c3.1,4.8,4,5.4,4,4.5C951.8,167.4,950.6,166.1,948.7,163.6z"/>
						<path class="st1" d="M1020.7,284.7c-0.6-0.9-1.3-1.7-1.9-2.4C1020.1,284.1,1021,285.3,1020.7,284.7z"/>
						<path class="st1" d="M986.3,210.9c0.1-0.3,0.1-0.7,0-1.2C985.9,209.4,985.8,209.7,986.3,210.9z"/>
						<path class="st1" d="M1168.3,881.6l3.4,0.5C1171.1,881.9,1169.9,881.7,1168.3,881.6z"/>
						<path class="st1" d="M982.6,884.2c-0.6,0-1.1,0-1.7,0C981.5,884.2,982.1,884.2,982.6,884.2z"/>
						<path class="st1" d="M977.1,884.2c1.3,0,2.6,0,3.9,0C979.3,884.2,977.9,884.1,977.1,884.2z"/>
						<path class="st1" d="M928.9,148.4c1.5-4.3,7-14.1,6.1-14.9l-11.8,18.5C928,145.7,931.2,143,928.9,148.4z"/>
						<path class="st1" d="M1267.2,712.7c3.7,6,5.7,9,6.8,10.4c-2.3-3.6-4.7-7.3-7-10.8L1267.2,712.7z"/>
						<path class="st1" d="M1354.8,838.9c-0.1-0.1-0.2-0.2-0.3-0.3c0.1,0.1,0.2,0.3,0.3,0.4L1354.8,838.9z"/>
						<path class="st1" d="M1259.7,702.4c-0.6-0.6-1.2-1.3-1.7-1.6C1259.4,703.1,1259.7,703.1,1259.7,702.4z"/>
						<path class="st1" d="M726.8,517.7c-0.4,0.9-0.8,1.7-1.4,2.8C726.1,519.2,726.5,518.4,726.8,517.7z"/>
						<path class="st1" d="M1353.9,834.1c0.4,1.8,0.7,3.4,0.9,4.8c0.7,0.6,1.4,1.2,2.3,2.1c1.1,0.6,0.8-0.5,0-2.2
							C1356.2,837.3,1354.8,835.2,1353.9,834.1z"/>
						<path class="st1" d="M1259.7,702.4c2,2.1,4.5,5.7,7.4,10l-2.2-5.5C1257.4,694.6,1259.6,700.8,1259.7,702.4z"/>
						<path class="st1" d="M946.7,150.5c2.6,6.2-10.6-13-3.9-0.8l8.9,10.7c-2-1.5,0.9,5.9,1,7.7c4.5,3.7-6.2-16.9,4.5-4.3
							c3,2.6,9.1,13.3,12,18.8c-6.8-12.1,1.8-0.7,5.3,3.8c3.7,7.8,11,19.3,11.9,23.4c1.1,0.9,4.7,6.4,6.8,10.5l-0.4,0.7
							c5.7,8.5-1.2-3.3,0.7-1.4c4,6.2,8.7,16.9,14.9,27.2c-6.2-10.3-12.2-18.4-17.2-25.5c10.2,19.5-4.9-1.6-8.9-4.9
							c9.7,14.8,14.3,19.9,22.6,31.7c7.8,15.8-5,1.4-7.4-2.3c9,13.3,19.5,26.6,24.6,33.6c-8.4-8.9-8-6.7-15.4-14.9
							c5.3,11.8,8.2,13.1,12.2,17.9c-2-3-5-7.6-5.3-9c7.6,13.2,9.8,8.9,15.4,14.9c4.8,10.3,15.4,29,12.6,29l2.1-1.4
							c7.3,11.1,2.4,6.6,2.7,8.8c4,3.4,3-3.2,15,15.6c-5.3-0.8,9.9,17.3,6.3,18.7c5.6,8.8,9.8,11.8,15,21.4
							c4.3,11.4-12.8-11.5-15.5-17.4c-7.8-12.9,2.5,0.8-0.6-4.3l-8.3-11.8c3.4,7.3,10.7,21.3,8.3,20.5c8.2,12.2-4.5-11,4.6,2.3
							l4.1,8.8c9,13.3,0.7-4.4,11.9,13.4c-8.7-11.1,11.6,19.5,8.6,19.8c3.4-1,19.6,32,24.2,34.3l-5-9.9l0,2.9
							c-6.2-10.3-12.2-18.4-18.1-29.5c6.1,7.8,0.7-4.3,7.5,4.9c12.7,17.3,1.4,5.8,2.9,8.4l10.3,13.7l-4.7-10.7
							c7.3,11.1,16.7,26.5,25.9,42.4c12.1,24.3-3.3-1.9,5,15.7c5.1,7.1,4.7,4.8,10.8,15.5c-2.6-6.2-6.4-9.9-8.7-14
							c-1.2-6.2,12.2,18.4,13.3,16.3c1.9,4.8,0.7,4.4-2.1,1.4c11.3,17.3,21.2,34.6,22.9,42.7l6.8,6.3c17.3,30.9-14.5-19.6-0.6,6.9
							c6.1,10.7,12.4,21,16,25.1l-5.4-9.2c5.4,6.3,5.9,5.2,13.4,15.9c4.5,8.1,0.5,4.7,7.4,13.6c13.2,25,1,9.5-3.4,6.8
							c9.4,18.4-9.6-6.4-1.5,5l-1.4-3.5l13.9,16.6c-7.8-18.7-6.4-5.4-7.9-13.7l-5.9-10.4c3.2,2.5,16.4,26.7,19.1,28
							c-0.6,0.6-3.9-0.9-10.3-11.5l1,8c3.4,6.3,7.7,9.3,8.5,13.5c3.7,10.3-10.9-11.8,1.9,11.3c13.8,24.5,16.3,21,25.7,37.7
							c-0.4-2.1-2.9-6.1-5.8-11.3c4.1,4.8-0.7-5.1,5.4,3.5c1.2,6.2,11.6,23.4,19.5,36.6c-3.1-2.8,1,6.2-2.1,2.4
							c4.2,6.6,8.2,12.6,10.8,14.9c-14.6-27.7,17.1,25.1,6.5,3.1c12.4,21,13.1,26.1,19.8,39.7c-1.1-0.5-15.5-23.4-5.3-4.4
							c14.7,20.2,0.5-5.5,12.7,9.8l-7.3-13.8c1.4-3.1,14.5,22.9,17,26.1c4.3,8.6-7.6-11.1-4.4-2.1c6.8,12.7,12.1,18,15.9,26.4
							c-6.2-6.7-2.6-2.2-9.3-10.1c17.3,29-2.8-0.4,9.4,22.4c0.6,0.9,1,1.5,1.4,2.1c0.1,0.1,0.1,0.1,0.2,0.2c0,0,0,0,0,0l0.1,0
							c0.1,0,0.1,0,0.2,0c0.2,0,0.4-0.1,0.7-0.1c0.4-0.1,0.9,0.1,1.1,0.9c0.9-0.5,1.4-1,1.4-1.7c0-0.2,0-0.4-0.1-0.6
							c0-0.1,0-0.1,0-0.2l0-0.1l0-0.1l-0.1-0.2c-0.3-0.6-0.6-1.2-1-1.9c-1.5-2.7-3.4-6.1-6.2-10.7c1.6,1.2,3.2,3.4,5,6.1
							c0.9,1.4,1.8,2.9,2.7,4.5c0.2,0.4,0.5,0.8,0.7,1.2l0.2,0.3l0,0.1l0.1,0.2c0.1,0.2,0.2,0.5,0.3,0.7c0.4,1,0.7,1.9,1.2,2.8
							c0.5,0.9,1.1,1.7,2.2,2.7c-1.3-2.7,0.2-0.8-2.1-3.8c1.2-0.4,1.7-1,2.4-1.1c0.7-0.1,1.7,0.2,4.4,2.5c-1-1.4-2-2.5-3-3.5
							c-0.5-0.5-0.9-0.9-1.4-1.3l-0.7-0.6c-0.2-0.2-0.3-0.2-0.9-1c-3.5-4.6-7.2-9.9-12-18.6c-0.3-3,3.2,2,7.2,7.5
							c3.9,5.5,8.6,12,9.5,10.3c2.1,2,4.9,6.5,7.1,10.7c2.2,4.3,3.7,8.1,4.1,9.9c0.1,0.2,0.3,0.4,0.5,0.6c-3.4,1-8.9,1.5-14.5,2.1
							c-2.8,0.3-5.7,0.7-8.5,1.1c-0.7,0.1-1.4,0.2-2.1,0.4c-1.1,0.1-2.1,0.3-3.2,0.4c-2.1,0.3-4,0.6-5.8,1c-13.9-0.9-48.7,1.8-75,1
							c-4-1.5-32.3-0.9-16.1-2.5c-2.3,0.5-24.1,0.8-18.4,2.1c2.2-0.5,4.7-0.1,9.4-0.2l-4.2,1.8c-12.7-0.8-26.9,1.6-39,0.5
							c-4-1.4,22.8-0.9,14.7-2.6c-11.7,2.7-59.4,3.9-74.6,2.7c-10.2-0.4-11.4-2.6-15.6-2.9l-17.1,0.2c-2-0.7-2.3-1.6-5.5-2.5
							c-8.4-0.5-14.2,0.3-19.4,0.7c-22.3-1.4-10.4-3.3,1-4.8l12.6,0.8c9.2-1,22.4-0.6,14.7-2.6c-6.4,0.2-6.2,1.1-8.4,1.6l-7.4-1.2
							c-7.5,0.9-28.1,1.4-25.9,3c-15.1-1.1-32.5,0.3-45.9-1c9.2,1-2.5,1.7,0.2,2.9l16.1,0.5c-12.9,0.5-31.6,1.6-43.7,0.6
							c1.5-1,2-1.3-4.2-2.3c8.7,1.4-22.6,1.8-3.8,3.5c6.9-0.6,13.4-0.8,22.4-0.6c5.9,2.2-8.3,2.4-16.2,3.7c-9.9,0.5-29.3,1.2-42.7,2
							c-8.4-0.5-10.9-3-25.4-1.5c18.4,2.1-17.4,3.5-22.1,5.6c-13.9-0.9-22.6,1.8-33.8,0.1c5.7-0.8,27.1-0.7,32.5-2.3
							c0.8-1.5-4.7-4,16.4-4.9c-25.4-0.8-14.9,1.3-26.6,1.9l8.7-0.2c-4,0.6,3.5,1.8-4.2,1.8c-29.8-0.6-35-2.2-55.2-4.1
							c4.5,1.1-4.7,2.2-9.5,2.2c-19.4-1.4,0.3-3.3-11.6-5.6c-6.7,1.4-19.9,1-15.5,2.1c-7.7,0-3.7-0.6-9.2-1c-5,1.3-10.7,2-21.3,2
							c1-0.7,2.5-1.7,12.7-1.3c-11.4-0.6-15.6-2.9-10.7-4.2l18.6,0.9c8.5-1.6-17.4-0.7-16.7-2.2c8.2-0.4,14.4,0.6,19.6,0.2
							c-5.2-1.6-21.4-0.1-30.8,0.1c-14.9-0.3-9.4-1.9-9.7-2.8c-25.4,2.6,29.3,3,5.7,5.4c-8.9,1.9-31.6,1.6-47.5,2
							c13.7,2.2-1.5,3.1-17.9,3.8c21.4,0.1,5.5,2.5,30.6,1.1l0.5,1.7c-10.7,0-23.4-0.8-34-0.8c2.2-0.5-0.3-0.9,3.2-1.1l-31.8,0.8
							l3.2-1.1c-19.6-0.2-43.7-1.5-55.4-0.9c9.5-0.2,17.6,1.5,7.7,2c-5.7,0.8-16.2,1.6-25.1,1.4c-1.2-0.5-4.2-0.9-7.7-1.2
							c-3.4-0.3-7.3-0.6-10.4-0.8c-2.6-0.2-4.5-0.5-4.6-0.8c-0.1-0.3,1.6-0.7,5.6-1.2c-5.2,0.3-8.8,0.5-11.6,0.7
							c-2.7,0.2-4.6,0.4-6.4,0.6c-1.8,0.2-3.7,0.4-6.6,0.6c-2.9,0.2-6.8,0.5-12.9,0.8l15.6-0.5c0.1,0.4-0.8,0.9-2,1.3
							c-1.2,0.5-2.7,1-3.9,1.5c-2.3,1-3,1.9,5.3,2.4c-9.4,0.4-13,1.2-16.5,2c-3.6,0.8-7,1.6-17.3,1.9c1.1-2,2.5-4.5,4.3-7.6
							c3.1-4.4,4.2-5.2,4.1-3.9c-0.1,1.3-1.5,4.6-3.4,8.7c3.9-0.3,8-0.5,12-0.6c-3.7-0.1-6.9-0.3-10.3-0.4c2.2-3.5,4.2-6.7,5.5-10.1
							c2-2.4,1.8-1,0.9,1.3c-0.9,2.2-2.3,5.3-2.9,6.8c1.4-0.1,2.2-0.3,2.3-0.4c-0.7,0-1.3,0-1.6,0c2.6-4.3,2-3.8,1.5-3.5
							c-0.5,0.3-1,0.5,1.8-4.5c2.2-4.5,4.1-7.8,5.8-10.2c1.6-2.4,3-4,4.3-5.5c1.3-1.5,2.6-2.9,4.2-5c1.5-2.1,3.3-4.8,5.6-9.3
							c-1.1,1.9-2.8,4.5-4,6.1c-1.2,1.6-1.9,2.1-0.8-0.4c1.9-3.1,3.3-5.6,4.6-7.7c1.2-2.1,2.2-3.9,3-5.3c1.5-2.8,2.2-4.5,2.8-5.9
							c1.1-2.9,1.7-4.9,6.8-14.2c8.1-9,7.6-3.3,17.9-19.3l-5.5,9.1c4.8-5.8,9.6-12.7,13.6-19.4c18.8-35.1,32.8-65,52.4-101
							l-7.1,12.9c-3.2,3.8,5.5-11,4.6-11.2l5.6-7.3c-0.1-3-12,16.8-10.6,11.3c0.8-1,2.4-3.5,3.2-5.1l-4.8,7
							c10.3-16.1,15.6-30.6,25.4-41.6c-19,32.1,1.2,7.4-16.9,39.1c9.4-16.9,3.3-2,5-3.3c5.6-8.5,1.5-4.9,7.9-14.4
							c0.9,0.9-10.9,22.5-4.5,13.6c-1-2,4.6-10.6,6.1-15.5c4.8-7,0.9,0.8,3.3-2.1c2.4-4.1,3.1-6.9,5.5-10.3l-0.7,3.3
							c13.6-19.3,2.2-7.1,16.5-29.8c-0.9-1.4-4.9,5.8-10.4,15.5c-5.8,3.1,14.7-31.5,10.5-31.5c12.6-22-2.3,6.5,9.7-11.5
							c8.1-9-6.1,14.9-7.6,20.4l12.8-18.4c-1.3,7.9-9.3,19.4-9.1,24.1c8.7-14.2,7.1-12.9,14.9-27.9c-16,22.3,4.6-11.1-6,0.8
							c7.2-10.4,5.7-6.7,15.2-22.5c-5.5,10.3,1.8,1.6-6.1,14.9c12.6-21.4,8.6-16,21.3-37.3c2.2-7.7-15.3,20.1-1.1-6.3
							c3.3-5.5,3.3-4,1.4-0.8c11.7-17.8-4.5,2.4,1.5-9.6c4.6-8.1,7-10.6,5.5-7c6.2-12.6,1-6.7,5.5-14.9l-2.4,3.5
							c1.5-3.7-6.6,4.1,3.6-13.2c7.6-12.6,6.2-8,7-8c5.3-10.1,10.3-17.3,15-23.7c-0.8,0.5-0.7-0.5,1.1-3.5
							c9.4-16.9,7.3-8.6,11.3-14.7c15.2-23.1-5.1,1,10.7-25.5l-19.1,30.3c-0.1-1.8-1-3.3-5,3.4c0.9,1.4-4.5,13-10.9,23.1
							c-3.3,2,14.9-28.5,2.8-12.2c4-6,8.7-14.8,13.5-22.4c-3,8.6,15.1-24.3,8.9-10c19.8-33.7,23.8-37.9,41.1-69.2
							c-0.7,3.4-9.9,24.5-20.3,40l-1.7,0.8c-11,20.6,10.4-14.9,9.8-10.4c12.4-26.2,34.2-53.9,51.5-84.7c-4,4.8-0.9-1.5-1-3.3
							c-7.1,12.3-5.5,10.3-11.9,18.6c-0.1-2.4,4.7-9.4,6.2-13.7c0.7-3.9-5.5,9.1-8.8,13c6.3-11.9,5.5-10.9,8.5-18.4
							c4.8-5.8,4.9-4.6,9-8.8c17.4-28.4,13.2-26.5,27.6-49.3c-7.9,12.6,4.9-5.2-3.9,8.4l4.8-7.6c-10.1,20.9-30.7,54.9-25.6,53.3
							c9.5-16.3,14.9-29.1,26.7-48.9l0.1,1.2c8.7-14.2-0.9-0.2,0.6-3.9c8.6-16.6,15.4-18.9,19.9-31.2l-10.3,16.1
							c6.2-13.1-2.4,3.5-2.6-0.7c11.7-22.8,35.6-60.1,52.9-92c-6.4,8.3-8,10.8-15.2,22.5c0.5-6.9,3.7-11.4-2.1-7.1l-8.7,14.2
							l-2.6-1.3c2.3-3.9,4.8-7.7,7.1-11c-0.4-2.9,13.5-21.3,12.6-23.2l-7.1,12.3c-4.9,5.2,3.9-9,8.6-17.8
							c-6.5,7.1-15.8,26.4-26.1,43.7c1.7-0.7-6.8,17.6,3.5,1c0.9,0.8-4.6,11.2-8.6,17.8c1.6-3.8-10.6,11.3-1.9-4.7
							c-7.8,15.6-4,6.6-13.4,23.6c0.7-2.8-17.4,29-18.4,25.7c-2.3,5.8,3.4,1.7-8.1,21c4.3-3.8,17.5-25.1,10.4-9.7l4.6-10
							c8.8-13-0.6,4.6,10.5-12.5c-3.2,5.1-8.6,16-11.1,17.7c5.9-2.6-14.1,26.9-12.3,29.2c-3.3,3.3-6.4,8.3-12,18.1
							c-0.1-1.8-4.1,3-0.2-4.8c4-6,6.3-10.7,11.2-17.1c-5.4,1.9-16,24.3-26.3,39.8c1.6-2.1,2.3-2.5,0.1,2.2
							c-6.4,9.5-19.9,30.6-17.7,23.6l-29.3,49.4c-0.9-0.2,3.9-7.2,5.5-10.3l-16.6,27.4c-4.9,5.8,4.6-9.9,5.3-13.3l-11.9,19.8
							l0.7-3.4c-2.3,5.3-15.7,28.2-20.7,32.8c-12.6,22-9.1,23.5-28.3,52c-1-2,9.4-16.9,12.5-24.4c-4,5.4-13.4,23.5-16.7,25.6
							c-11.8,21.6-7.5,21-12.1,32.2c-10.3,17.3-2.5,1.1-3.4,1.5c-3.2,5-5.2,15.1-10.2,18.5c-3.8,9-5.3,14.5,2.7,2.5
							c-5.5,9.1-12.6,22.6-13.3,25.3c2.1-8.8-7.2,9.9-9.8,9.7c-8.8,13.6-27.8,43.9-33.1,58.4l-0.3-5.4l-9.5,16.4
							c-8.9,11.2,7-15.3,11.7-23.4c-13.5,21.8-22.2,36.5-34.1,56.4c4-5.4,2.5-1.7,4.9-4c-3,7.4-9.5,16.3-13.4,23.5
							c-1.7,1.3-1.7,0.1,1.4-5.5l-7.9,13.8c-1-2-4.9,4.6,2.1-9.5l-7.1,12.9c-8.8,13.6-0.9-1.4,0.6-5.1l-13.5,21.7
							c-3.9,8.4,4.1-3.6-4.6,11.8c-13.6,19.3-28.6,45.4-42.9,68.2l11.2-15.3c-8.8,13.6-4.5,12.4-6,17.3c-1,1.6-2,3.2-3.1,4.9
							c-1.7,2.7-3.4,5.5-5.1,8.4c-3.6,6-7.4,12.1-11.1,18.1c-7.4,12.1-14.7,23.9-20.8,33.3c5.1-9.8,5.8-12.7,3.2-10.2
							c-2.6,2.5-8.4,10.6-16.1,22c-0.7,1.1-1.4,2.3-1.8,2.9c13.2,0,22.5-0.2,29.5-0.5c7-0.3,11.7-0.7,15.6-1.2
							c7.9-0.9,13-1.9,27.4-2.5c-6,0.9-7,1.5-4.8,1.8c2.2,0.3,7.5,0.4,13.4,0.5c2.9,0,6,0,8.9,0.1c1.6,0,3.2,0,4.5,0.1
							c2.6,0.1,4.2,0.3,3.4,0.8c38.5-0.1,77.3-1.5,117-1.4c-0.8-0.5-12.2-1.1-5.2-1.6c14.6-0.6,21.6,0.9,23.6,1.6
							c18.9-0.3,29.8-1.5,36-2.6c-8.2,0.4-9-0.2-7.4-1.2c18.9-0.3,13.7,2.2,31.6,0.4c4.7,2-19.9,1-18.2,2.9
							c16.7,0.1,27.1-0.7,39.3-1.7c2.8,1.3-11.2,0.3-2,1.3c25.8-1,56.9-2.1,76.3-2.9l5.2,1.6c12.4-0.1,20.6-0.5,26.3-1.2
							c6.7,0.6,1.5,1.1-5,1.3c16.6,0.1,37-1.2,46.5-1.4c-1.5,1-9.5,0.2-12.2,1c20.9,0.4,47.2-2.9,60.9-0.8c-1.8,0.3-3.8,0.3-5.7,0.3
							c30.9,0.1,57.8-1.1,91.4-1.3c30.8,2,9.9-2.6,40.2-2.3c0.2,4.5,41.2,0.3,54,1.1l-4.1-0.6c14.9-1.8,35.5-0.2,46,1
							c22.6,0.3,56.4,0.2,79-1.6l-4.5,0.9c18.7-1.2,30.3,0.2,49-1c-0.5,0.3-7.5,0.9-0.3,1.2l7,0.1c3.6,0,7.2,0.1,10.8,0.1
							c7.2,0,14.4,0.1,21.7,0.1c14.5,0,29,0,43.5,0.1c-7.5-12.5-15-25-22.4-37.5c-3.7-6.2-7.5-12.5-11.2-18.7l-9.2-15.2
							c-9.5-15.5-18.9-31-28.4-46.5c-18.9-31-37.7-61.9-55.9-92.9c-87-148-195.8-332.1-285.3-475.5
							C1003.9,195.6,947,136.3,946.7,150.5z"/>
						<path class="st1" d="M719.8,534.3c-0.4,0.7-0.8,1.3-1.3,2C719,535.6,719.4,534.9,719.8,534.3z"/>
						<path class="st1" d="M534.2,866.8c-2,0-4,0-6.1,0.1C530,866.9,532,866.9,534.2,866.8z"/>
						<path class="st1" d="M879.8,860.5l-7.2,0.2C875.7,860.7,878,860.6,879.8,860.5z"/>
						<path class="st1" d="M1359.8,845.6c-0.6,0.2-2.6-1.5-4.2-2.4c-1.6-1-2.8-1.3-2.6,0.1c0.9,1.6,1.8,2.9,2.7,4.1
							c-3.1,0.5-2.6,1.7-3.3,2.7c-0.4,0.5-1.2,1-3.1,1.3c-1,0.2-2.2,0.3-3.8,0.4c-0.8,0-1.7,0.1-2.7,0.1c-0.5,0-1,0-1.6,0
							c-0.6,0-1.3,0-2,0l0.3,0c0.1,0,0.2,0,0.3,0l0.4,0l0.7,0.1l1.4,0.2l3,0.4l6.4,0.7c-1.1-1-0.2-1.8,1.3-2.4
							c1.6-0.6,3.9-1,6.6-1.2c-0.5-0.7-0.9-1.4-1.4-2.1c0.5-0.2,1-0.4,1.4-0.8c1.5,1.5,2.9,3.2,4.4,5c-0.7-1.4-1.5-2.2-2.3-3
							C1361.2,848,1360.4,847.2,1359.8,845.6z"/>
						<path class="st1" d="M1364.5,852.5L1364.5,852.5l-0.1-0.3c-0.1-0.1-0.2-0.2-0.2-0.3L1364.5,852.5L1364.5,852.5z"/>
					</g>
				</g>
			</g>
		</g>
	</g>
</g>
<g id="crossbar">
	<g>
		<g>
			<g>
				<g>
					<g>
						<path class="st1" d="M933.7,539.7c-1.4,0-1.8-0.1-1.9-0.2c-1.2,0-2.3,0-3.5,0L933.7,539.7z"/>
						<path class="st1" d="M1262.6,536.7c0.2,0,0.3,0,0.6,0c-0.6-0.1-1.4-0.1-1.6-0.2C1261,536.6,1261,536.6,1262.6,536.7z"/>
						<path class="st1" d="M1179.8,537.4c-1.5-0.1-2.9-0.1-4.2-0.2C1175.7,537.3,1177.4,537.4,1179.8,537.4z"/>
						<path class="st1" d="M978.9,540.4c-3.7-0.1-7.4-0.2-11.2-0.3C968.9,540.2,973.1,540.4,978.9,540.4z"/>
						<path class="st1" d="M1190.9,537.8c-2.9-0.1-7.7-0.2-11.2-0.3C1183.2,537.6,1186.9,537.7,1190.9,537.8z"/>
						<path class="st1" d="M1418.7,537.7c-2.3-0.1-4.7-0.1-7.4-0.2c-0.2,0-0.6,0.1-0.6,0.1L1418.7,537.7z"/>
						<path class="st1" d="M514,569.6c7.4,0,8.6-0.2,7.5-0.3C520.2,569.4,518,569.5,514,569.6z"/>
						<path class="st1" d="M694.7,570.9c-1.4,0-2.7,0.1-3.9,0.1C693.6,570.9,695.5,570.9,694.7,570.9z"/>
						<path class="st1" d="M590.8,567.4c-0.2-0.1-0.7-0.1-1.4-0.2C588.8,567.3,589.1,567.3,590.8,567.4z"/>
						<path class="st1" d="M1175.9,562.7l4.4,0.3C1179.5,562.9,1177.9,562.8,1175.9,562.7z"/>
						<path class="st1" d="M937.8,559.1c-0.7,0-1.4,0-2.1,0C936.4,559.1,937.1,559.1,937.8,559.1z"/>
						<path class="st1" d="M930.8,559c1.7,0,3.3,0.1,4.9,0.1C933.6,559.1,931.7,559,930.8,559z"/>
						<path class="st1" d="M1426.3,538.7c5.8-0.3,20.1-0.3,20.4-0.7l-28.1-0.4C1428.7,538.1,1433.7,538.5,1426.3,538.7z"/>
						<path class="st1" d="M1328,576.4c9.1,0,13.7-0.1,16-0.2c-5.5,0-11.1,0.1-16.4,0.1L1328,576.4z"/>
						<path class="st1" d="M1495.8,560c0.3,0,0.6,0,0.8,0c-0.5,0-0.8,0-1.3,0L1495.8,560z"/>
						<path class="st1" d="M1311.7,576.8c-1.1,0.1-2.2,0.1-2.9,0.2C1312.3,576.9,1312.5,576.9,1311.7,576.8z"/>
						<path class="st1" d="M887,541c-1.3,0-2.4,0-4,0.1C884.7,541.1,885.9,541,887,541z"/>
						<path class="st1" d="M1509.7,561.3c-4.7-0.5-9.3-0.9-13.9-1.3c-1.9,0-3.8,0-6.3,0C1487,560.4,1502.9,561,1509.7,561.3z"/>
						<path class="st1" d="M1311.7,576.8c3.6-0.2,9.2-0.3,15.8-0.4l-7.5-0.3C1301.6,576.1,1309.8,576.5,1311.7,576.8z"/>
						<path class="st1" d="M498.2,567.8c8.6,0.4-21.3,0.7-3.4,0.9l17.7-0.6c-2.9,0.3,7.1,0.8,9.1,1.1c7.1-0.6-22.6-1.3-1.8-2
							c4.8-0.4,20.6-0.2,28.6,0c-17.8-0.3,0.5-0.6,7.6-0.8c11,0.4,28.5,0.3,33.6,0.8c1.7-0.1,10.2-0.2,16-0.1l0.6,0.2
							c13.1-0.1-4.4-0.2-1.1-0.5c9.5,0,24.3,0.6,39.8,0.6c-15.5-0.1-28.3,0.1-39.4,0.3c28.2,0.6-5,1.1-11.3,1.6
							c22.6-0.1,31.3-0.5,49.8-0.7c22.5,0.6-1.8,1.6-7.4,1.7c20.6-0.2,42.1-0.8,53.1-0.9c-15.3,0.8-12.7,1.1-26.5,1.7
							c16.5,0.6,19.9,0,27.7-0.3c-4.6,0.1-11.7,0.1-13.4-0.1c19.6,0.2,16.3-1.2,26.5-1.7c14.5,0.5,42.1,0.8,40.3,1.6l-0.2-0.9
							c17-0.1,8.8,0.5,11.5,0.8c6.3-0.5-1.6-1.4,27.1-1.5c-4.4,1.3,25.5,0.3,24.7,1.5c13.4,0,19.5-0.7,33.4-0.4
							c15.4,0.8-21.1,1.6-29.4,1.3c-19.3-0.1,2.5-0.6-5.2-0.6l-18.5,0.3c10.3,0.3,30.5,0.8,28,1.3c18.8-0.1-15.1-0.7,5.5-0.9
							l12.4,0.4c20.6-0.2-4.3-1,22.5-1c-18,0.5,29.1,0.2,27.5,1.1c1.1-1.1,48.1,0.1,53.7-0.8l-14.2-0.3l3.2,0.5
							c-15.5-0.1-28.3,0.2-44.3-0.1c12.6-0.3-4.3-1,10.3-1.3c27.4-0.5,7.3,0.7,11.2,0.7l21.8-0.5l-14.8-0.6c17-0.1,40.2,0,63.7,0.2
							c34.7,0.9-4.3,0.6,20.6,1.4c11.1-0.2,8.4-0.5,24.2-0.3c-8.5-0.4-15.2,0.1-21.1,0c-7.6-0.8,28.3-0.2,26.6-0.9
							c6.5,0.3,5.2,0.6,0.1,0.9c26.5-0.1,52.1,0.1,62,1l11.4-0.8c45.4,0.5-31.1,0.7,7.2,1.4c15.8,0.2,31.3,0.2,38.2-0.1l-13.7-0.1
							c10.4-0.4,9.6-0.8,26.3-1c11.9,0.1,5.5,0.7,19.8,0.3c36.2,0.6,11.1,1.4,5.3,2.2c26.4,0.6-13.3,1.6,4.5,1.3l-4.8-0.2l27.4-1.1
							c-25.7-1.1-10.2,0.9-20.3-0.1l-15.3-0.1c4.8-0.5,40.2,0,43.4-0.5c0.3,0.3-3.5,0.9-19.4,0.9l9.5,1.1c9.2,0.1,15.3-0.6,20.4-0.1
							c13.7,0.7-20.1,1,13.6,1.4c36.1,0.3,33.9-1,58.4-0.8c-2.5-0.2-8.6-0.2-16.3-0.3c8-0.3-6-0.7,7.4-0.9
							c7.6,0.7,33.4,0.7,53.2,0.7c-5.2,0.4,7.5,0.8,1.3,1c10-0.1,19.2-0.2,23.5-0.5c-40.2-0.5,38.9-0.6,7.7-1.3
							c31.3,0,37.3,0.7,56.7,1c-1.3,0.2-36,0.6-8.3,0.8c31.9-0.9-5.7-1,19.1-2l-20.1-0.2c-2.5-0.9,34.7-0.4,39.9-0.6
							c12.4,0.1-17.3,0.4-5.2,0.9c18.5,0.1,27.8-0.6,39.6-0.5c-11.5,0.8-4.2,0.5-17.3,1.2c21.7-0.3,21.2-0.2,19.4,0.1
							c-0.9,0.1-2.2,0.3-1.1,0.4c0.5,0.1,1.6,0.1,3.7,0.1c2,0,4.9,0,9.2-0.1c1.4-0.1,2.5-0.2,3.5-0.3c0.5-0.1,1-0.1,1.5-0.2
							c0.3,0,0.6-0.1,0.8-0.1c0.2,0,0.4-0.1,0.5-0.1c0.1,0,0.3-0.1,0.4-0.1c0.2,0,0.3-0.1,0.5-0.1c0.3-0.1,0.6-0.2,0.9-0.3
							c0,0,0.3-0.1,0.5-0.2c0.2-0.1,0.4-0.2,0.6-0.4c0.2-0.1,0.4-0.3,0.6-0.4l0.3-0.2l0.1-0.1l0.2-0.1l0.3-0.3
							c0.8-0.7,1.5-1.7,1.9-2.8c0.2-0.5,0.4-1.1,0.5-1.6c0.1-0.3,0.1-0.5,0.1-0.8l0-0.4c0-0.2,0-0.3,0-0.5c0-1.4-0.4-3-1.2-4.2
							c-0.2-0.3-0.4-0.6-0.6-0.8l-0.2-0.3c-0.2-0.2-0.3-0.4-0.5-0.5c-0.3-0.3-0.7-0.7-1.1-0.9l-0.3-0.2l-0.1-0.1l-0.2-0.1
							c-0.3-0.2-0.6-0.3-0.9-0.4l-0.3-0.1l-0.2-0.1l-0.4-0.1l-0.5-0.1l-0.3-0.1l-0.3-0.1c-0.6-0.1-0.9-0.1-1.2-0.2
							c-0.6,0-1.1-0.1-1.6-0.1c-2-0.1-4.7-0.2-13.2-0.7c5,0.6,7.1,0.9,11.7,1.4c0.6,0.1,1.2,0.1,1.9,0.2c0.4,0.1,0.8,0.1,1.2,0.2
							c0.3,0,0.5,0.1,0.9,0.2c0.2,0,0.4,0.1,0.8,0.2l0.4,0.1c0.2,0.1,0.3,0.1,0.5,0.2c0.4,0.2,0.7,0.3,1,0.5
							c0.4,0.3,0.9,0.7,1.3,1.1c0.2,0.2,0.4,0.4,0.6,0.7c0.5,0.6,0.9,1.4,1.2,2.2c0.3,0.8,0.4,1.7,0.3,2.5c0,0.6-0.1,1.2-0.4,1.9
							c-0.4,1.3-1.3,2.5-2.2,3.3c-0.5,0.4-0.9,0.7-1.4,0.9l-0.4,0.2l-0.2,0.1l-0.2,0.1c-0.2,0.1-0.3,0.1-0.5,0.2
							c-0.3,0.1-0.4,0.1-0.6,0.1l-0.4,0.1l-0.3,0.1l-0.2,0l-0.5,0.1c-0.6,0.1-1,0.1-1.5,0.1c-1,0.1-1.9,0.1-2.9,0.2
							c-4,0.2-9.1,0.3-16,0.4c2.4-0.3,5.9-0.5,10-0.6c2.1-0.1,4.4-0.2,6.8-0.3c0.6,0,1.3-0.1,1.9-0.1c0.4,0,0.7-0.1,1.1-0.1
							c0.4,0,0.8-0.1,1.4-0.2l0.3,0l0.4-0.1c0.1,0,0.2,0,0.5-0.1l0.4-0.1l0.2-0.1l0.2-0.1l0.3-0.1c0.4-0.2,0.8-0.5,1.1-0.7
							c0,0,0.5-0.4,0.8-0.8c0.3-0.4,0.7-0.8,0.9-1.3c0.3-0.5,0.5-1,0.6-1.5c0.1-0.6,0.2-0.9,0.2-1.6c0-1.3-0.4-2.8-1.2-3.9
							c-0.4-0.5-0.4-0.5-0.6-0.7c-0.2-0.2-0.3-0.3-0.5-0.5c-0.2-0.2-0.4-0.3-0.5-0.4c-0.2-0.1-0.4-0.3-0.4-0.3
							c-0.1-0.1-0.3-0.2-0.4-0.2c-0.7-0.4-0.8-0.3-1.1-0.5c-0.3-0.1-0.3-0.1-0.5-0.2c-0.5-0.1-0.8-0.2-1-0.2l-0.7-0.1
							c-0.8-0.1-1.5-0.2-2.2-0.3c-5.4-0.5-10.7-0.8-16.1-1c-5.3-0.2-10.6-0.4-15.4-0.4c15.4,0.6,4.8,0.3,21.5,0.9
							c1.1,0.5,3.2,0.8,3.1,1c-0.1,0.2-2.4,0.3-10,0.4c4.5,0.1,8.3,0.2,12,0.3c1.8,0.1,3.6,0.1,5.5,0.2c0.5,0,1,0.1,1.6,0.1
							c0.3,0,0.6,0.1,1.1,0.2l0.2,0l0.3,0.1l0.1,0l0.2,0.1l0.2,0.1l0.2,0.1l0.3,0.1c0.2,0.1,0.3,0.2,0.5,0.3
							c0.4,0.3,0.9,0.7,1.2,1.1c0.1,0.1,0.1,0.1,0.4,0.5c0.2,0.3,0.4,0.7,0.6,1.1c0.3,0.8,0.4,1.6,0.4,2.3c0,1.1-0.6,2.5-1.5,3.4
							c-0.2,0.2-0.5,0.5-0.5,0.5l-0.2,0.1c-0.1,0.1-0.2,0.2-0.3,0.2c-0.2,0.1-0.5,0.3-0.7,0.4l-0.3,0.1l-0.1,0l-0.2,0.1
							c-0.4,0.1-0.5,0.1-0.7,0.2l-0.4,0.1l-0.6,0.1l-0.9,0.1c-0.5,0.1-1,0.1-1.5,0.2c-3.9,0.4-7.8,0.6-12.4,0.7
							c-4.6,0.2-9.9,0.3-16.3,0.3c-3.5-0.4,4.3-0.6,13.1-1c4.4-0.2,9-0.4,12.6-0.7c1.8-0.2,3.3-0.3,4.5-0.6c0.3-0.1,0.6-0.1,0.9-0.2
							c0.3-0.1,0.6-0.1,1.1-0.3c0.1,0,0.2-0.1,0.3-0.1c0.1-0.1,0.2-0.1,0.3-0.2c0.2-0.1,0.4-0.2,0.6-0.4c0.1-0.1,0.2-0.1,0.3-0.2
							l0.1-0.1c0.1-0.1,0.2-0.2,0.3-0.2c0.2-0.2,0.3-0.4,0.5-0.6c0.3-0.4,0.5-0.9,0.6-1.4c0.1-0.5,0.2-0.8,0.1-1.5
							c-0.1-0.6-0.3-1.2-0.6-1.7c-0.4-0.6-0.4-0.5-0.5-0.7c-0.3-0.3-0.5-0.5-0.8-0.7c-0.2-0.1-0.2-0.1-0.3-0.2
							c-0.5-0.2-0.5-0.2-0.7-0.2c-0.1,0-0.2,0-0.2,0c-0.6-0.2-0.9-0.2-1.2-0.2c-0.3,0-0.5-0.1-0.8-0.1c-0.5,0-1-0.1-1.5-0.1
							c-1-0.1-2-0.1-3-0.2c-2.1-0.1-4.4-0.2-6.9-0.3c-4.9-0.2-10.4-0.5-15.9-0.7c-11.1-0.5-22.3-1.1-29.3-1.5
							c-24.8-0.1-55.1-0.8-74-0.2c-17.9-0.7-62.5-0.8-96.2-1.8c-5.1-0.6-41.4-1.2-20.7-1.3c-2.9,0.1-30.9-0.4-23.6,0.2
							c2.9-0.1,6,0.1,12.1,0.2l-5.4,0.5c-16.3-0.6-34.5-0.2-50.1-0.8c-5.1-0.6,29.3,0.3,18.8-0.5c-15,0.6-76.2-0.2-95.6-0.9
							c-13.1-0.4-14.6-1.2-20-1.3l-21.9-0.3c-2.6-0.3-2.9-0.6-7-1c-10.8-0.4-18.2-0.3-24.9-0.2c-28.6-1-13.3-1.3,1.4-1.6l16.2,0.6
							c11.8-0.1,28.7,0.3,18.8-0.5c-8.2-0.1-7.9,0.2-10.8,0.3l-9.5-0.6c-9.6,0.1-36-0.2-33.2,0.4c-19.4-0.7-41.7-0.7-58.9-1.4
							c11.8,0.6-3.2,0.5,0.3,1l20.7,0.5c-16.6-0.2-40.5-0.2-56.1-0.8c1.9-0.3,2.5-0.4-5.4-0.9c11.1,0.7-29,0.1-4.8,1.1
							c8.9,0,17.2,0.1,28.7,0.3c7.5,0.9-10.6,0.6-20.8,0.8c-12.7-0.1-37.6-0.2-54.8-0.4c-10.8-0.4-14-1.2-32.5-1.1
							c23.6,1.1-22.3,0.7-28.4,1.3c-17.8-0.6-29,0.1-43.3-0.8c7.3-0.1,34.7,0.4,41.7,0c1-0.5-6-1.5,21.1-1.2
							c-32.5-0.9-19.1,0.1-34.1,0l11.1,0.1c-5.1,0.1,4.5,0.7-5.4,0.5c-38.2-0.9-44.9-1.6-70.7-2.7c5.7,0.5-6,0.6-12.1,0.5
							c-24.8-0.9,0.3-1.1-14.9-2.1c-8.6,0.3-25.5-0.1-19.8,0.3c-9.8-0.2-4.7-0.3-11.8-0.6c-6.4,0.3-13.7,0.4-27.4,0.1
							c1.2-0.2,3.2-0.5,16.2-0.1c-14.7-0.5-20-1.3-13.6-1.6l23.9,0.7c10.9-0.3-22.3-0.6-21.3-1.1c10.5,0.1,18.5,0.6,25.2,0.5
							c-6.7-0.7-27.4-0.5-39.5-0.7c-19.1-0.5-12.1-0.9-12.4-1.2c-32.5,0.2,37.5,1.7,7.3,2c-11.5,0.4-40.5-0.2-60.9-0.5
							c17.5,1.1-2,1-23,0.8c27.4,0.6,7,1,39.2,1.1l0.6,0.6c-13.7-0.4-29.9-0.8-43.6-1.1c2.9-0.1-0.3-0.3,4.2-0.3l-40.8-0.6l4.2-0.3
							c-25.2-0.6-56-1.7-71-1.9c12.1,0.2,22.6,1,9.9,0.9c-7.4,0.1-20.7,0-32.2-0.3c-6-0.8-49.3-2-21.9-1.9
							c-17.7-0.3-23.2-0.4-28.6-0.5c-2.7,0-5.3-0.1-9.4-0.2c-2-0.1-4.4-0.1-7.3-0.3c-0.7,0-1.5-0.1-2.3-0.2c-0.4,0-0.8-0.1-1.1-0.1
							l-0.1,0c0,0,0,0,0,0c0,0,0-0.1,0,0.1c0,0.1-0.1,0.3-0.1,0.4c0,0.1-0.1,0.2-0.1,0.3c0,0.1-0.1,0.2-0.1,0.3
							c0,0.1-0.1,0.1-0.1,0.1c0,0,0,0,0.1,0.2c0,0.1,0.1,0.1,0.1,0.3c0.1,0.1,0.1,0.3,0.1,0.4c0,0.1,0.1,0.3,0.1,0.4
							c0,0.1,0,0,0,0.1l0,0c0.1,0,0.3,0,0.5-0.1c1.7-0.2,3.6-0.2,5.7-0.3c-1.9,0.1-3.8,0.1-5.6,0.3c-0.2,0-0.4,0-0.6,0.1l0,0l0,0
							c0,0,0-0.1,0-0.2l-0.1-0.2c0-0.1-0.1-0.3-0.1-0.4c0-0.1,0-0.2-0.1-0.3c-0.1-0.2-0.1-0.1,0-0.2c0.1-0.1,0.1-0.1,0.1-0.2
							c0.1-0.1,0.1-0.2,0.1-0.3c0-0.1,0.1-0.2,0.1-0.4l0.1-0.2c0-0.1,0,0,0-0.1l0.1,0c0.3,0.1,0.8,0.1,1.3,0.1
							c0.9,0.1,1.8,0.1,2.8,0.2c3.7,0.2,7.5,0.3,11.3,0.5c2.8,0.6-16,0.8,5.7,2c-12.7-0.3-15.1-0.1-18.5-0.1c-0.4,0-0.9,0-1.4,0
							c-0.5,0-1,0-1.7-0.1c-0.1,0-0.2,0-0.5-0.1c0,0,0,0-0.1-0.1c-0.1,0-0.2-0.1-0.2-0.2l-0.1-0.1c-0.1-0.1-0.2-0.3-0.3-0.4
							c-0.1-0.4-0.1-0.7,0-1c0.1-0.2,0.2-0.3,0.3-0.4c0.1-0.1,0.1-0.1,0.1-0.1l0,0c0.1,0,0.1-0.1,0.2-0.1c0.2-0.1,0.2-0.1,0.2-0.1
							c0.3-0.1,0.5-0.1,0.7-0.1c0.4-0.1,0.7-0.1,1.1-0.1c0.7-0.1,1.6-0.1,2.5-0.2c3.7-0.2,9.1-0.4,17.6-0.5c6.9,0.1,5.9,0.4,0.7,0.7
							c-2.6,0.1-6.2,0.3-10.4,0.4c-2.1,0.1-4.3,0.2-6.6,0.3c-1.2,0.1-2.3,0.1-3.5,0.2c-0.6,0-1.2,0.1-1.8,0.2c-0.1,0-0.1,0-0.2,0.1
							l-0.1,0c0,0-0.2,0.1-0.2,0.3c0,0.1,0,0.3,0,0.4c0.1,0.1,0.1,0.1,0.1,0.2c0.2,0.2,0.3,0.1,0.4,0.2c0.2,0,0.3,0.1,0.5,0.1
							c0.3,0,0.6,0.1,0.9,0.1c-0.3,0-0.6-0.1-0.9-0.1c-0.2,0-0.3,0-0.5-0.1c-0.1,0-0.1,0-0.4-0.2c0,0,0,0-0.1,0c0,0-0.1-0.1-0.1-0.2
							c0-0.1,0-0.2,0-0.4c0-0.1,0.1-0.1,0.1-0.1c0,0,0,0,0.1,0l0.1,0c0.1,0,0.1,0,0.2-0.1c0.7-0.1,1.2-0.1,1.8-0.2
							c1.2-0.1,2.4-0.1,3.5-0.1c2.3,0,4.7,0,7-0.1c4.6,0,9.3-0.1,14.3-0.3c7.3,0.4-18.2,0.9-17.2,1.1c17.5-0.2-0.3-0.3,16.2-0.6
							c29-0.7,18.5,0.8,46.2,0.4c-6.1,0-16.9-0.1-9.6-0.4c37.3,0,20.7-0.5,47.8-0.7c15.3,0.8,8.6,1.6,33.1,1.9l-13.6-0.1
							c9.5,0.4,20.4,0.6,30.3,0.7c51-0.5,93-1.4,145.6-1.7l-18.8,0.1c-6.4-0.3,15.7-0.2,15.4-0.5l11.7,0.4
							c3.2-0.5-26.4-0.7-19.4-1.2c1.6,0.1,5.4,0.1,7.7,0.1l-10.9-0.2c24.6,0.3,44-0.6,62.5,0.4c-47.8-0.2-7.3,1.6-54.2,1.6
							c24.8-0.1,4.4,0.6,7,0.9c13.1,0.2,6.4-0.4,21.1-0.1c-0.3,0.4-31.9,0.6-17.9,1c1.6-0.6,14.6-0.4,21-0.8
							c10.8,0.2-0.3,0.4,4.5,0.6c6,0,9.6-0.2,15-0.1L702,542c30.2,0.7,9.2-0.5,43.6-0.2c1-0.5-9.6-0.4-23.9-0.4
							c-7.3-1.2,44.3-0.9,41.5-2.2c32.5,0-8.6,0.4,19.1,0.9c15.3,0.9-20.4,0.7-27.4,1.2l28.7,0.7c-9.6,0.9-27.4,0.5-32.5,1.4
							c21.3,0.2,18.8-0.1,40.5-0.3c-35.1-1,15.3-0.5-4.8-1.6c16.2,0.4,11.1,0.5,34.7,0.7c-15,0.1-0.6,0.8-20.4,0.7
							c31.9,0.1,23.2-0.1,55.1,0c9.9-0.6-32.2-1.1,6.1-1.4c8.3,0,6.7,0.3,1.8,0.3c27.4,0.4-5.6-0.9,11.6-1.1c12,0,16.3,0.3,11.3,0.4
							c17.9-0.3,8-0.8,19.9-0.9l-5.4-0.1c5.1-0.2-8.9-1.2,16.9-1.1c18.8,0.1,12.9,0.5,13.4,0.7c14.6-0.1,25.9,0.1,35.9,0.4
							c-1-0.1,0.1-0.3,4.6-0.2c24.9-0.1,14.3,0.7,23.5,0.8c35.4,0.6-4.4-1.3,35.1-1.1L985,539c1.9-0.3,2.9-0.8-7-0.9
							c-0.9,0.5-17.2,0.8-32.5,0.7c-4.4-0.6,41.1-0.4,15.3-1.2c9.2,0.2,22,0.1,33.5,0.2c-11.5,0.6,36.7,0.4,16.9,0.9
							c50,0.2,57.4,0.7,103.3,0.5c-4.1,0.4-33.4,1.2-57.4,0.7l-2-0.4c-29.9,0.2,23.3,0.6,17.9,1.1c37-0.7,81.8,1,127.1,1
							c-7.9-0.4,1-0.5,2.9-0.8c-18.2,0-15,0.1-28.3-0.4c2.5-0.4,13.4-0.2,19.1-0.5c4.8-0.5-13.7-0.1-20.1-0.4
							c17.3-0.1,15.6-0.2,25.9-0.6c9.5,0.5,8.2,0.7,15.6,1.2c42.7,0.4,37.9-0.5,72.3-0.1c-19.1-0.2,8.9,0.6-11.8,0.3l11.5,0.1
							c-29.7,0.5-80.6,0.1-75.6,1.3c24.2,0.1,41.8-0.5,71.4-0.3l-1.3,0.2c21.4,0.2-0.3-0.3,4.8-0.5c23.9-0.2,30.9,1.3,47.5,0.6
							l-24.5-0.3c18.5-0.4-5.4-0.1-1-0.9c32.8-0.4,89.6,0.4,136.1,0.2c-13.4-0.5-17.2-0.5-34.7-0.7c7.9-1,15-0.8,6.4-1.8l-21.4-0.2
							l-0.3-1c5.8,0,11.6,0.1,16.8,0.2c2.9-0.6,32.4,0.4,33.8-0.2l-18.2,0c-8.9-0.6,12.5-0.4,25.2-0.4c-12.1-0.7-39.5-0.2-65.3-0.4
							c1.9,0.4-23.9,0.9,1.2,1.2c-0.3,0.4-15.3,0.5-25.2,0.4c5.2-0.2-19.4-1.2,3.9-1.3c-22.3,0.3-9.9-0.1-34.7,0
							c3.5-0.2-43.3-0.3-40.5-1.1c-7.9,0.3,0.4,1.3-28.4,1.1c7,0.6,39.1,0.9,17.6,1.4l14-0.3c20.1,0.4-5.5,0.6,20.7,1
							c-7.7-0.1-23.3,0.1-26.8-0.3c6.7,1.3-38.9,0.3-40.2,1.2c-5.8-0.4-13.4-0.5-27.8-0.5c2-0.3-6-0.7,5.2-0.9
							c9.2,0.2,15.9,0.1,26.1,0.4c-5.7-1.3-37.2-0.6-61.1-1.1c3.3,0.1,4.3,0.2-2.3,0.4c-14.6-0.3-46.8-0.7-37.6-1.2l-73.6-0.3
							c-0.3-0.3,10.5,0,15-0.1l-41.1-0.3c-9.6-0.5,14-0.3,18.1-0.6l-29.6-0.2l4.1-0.4c-7.3,0.2-41.4,0.1-49.7-0.6
							c-32.5,0-31.9,1.2-75.9,0.4c1.6-0.6,24.9-0.1,35.1-0.4c-8.6-0.3-34.7,0-39.2-0.6c-31.5,0.2-28.1,1.3-43.4,1.8
							c-25.8-0.1-2.8-0.5-3.9-0.7c-7.6-0.1-20.1,1-27,0.1c-12.4,0.4-19.5,0.9-1,1.2c-13.7-0.1-33.1,0.1-36.6,0.3
							c11.1-0.9-15.6-0.5-17.2-1.2c-20.8-0.3-66.6-0.8-86.1,0.1l5.8-1l-24.2,0c-18.1-0.7,21.4-0.5,33.5-0.5
							c-32.8-0.3-54.8-0.4-84.4-0.5c8.6,0.3,3.5,0.4,7.6,0.8c-10.2,0.4-24.2,0-34.7,0c-2.6-0.3-1.3-0.5,7-0.5l-20.4,0
							c1.6-0.6-8.3-0.7,11.8-1l-18.8,0.1c-20.7-0.3,0.9-0.5,6-0.7l-32.8-0.3c-11.8,0.3,6.7,0.6-15.9,0.7
							c-30.3-0.7-68.9-0.6-103.3-0.8l24.2,0.6c-20.7-0.2-16.6,0.8-23,1.2c-19.2-0.1-45-0.1-61.2-0.2c18.5-0.6,10.9-1.3-6.4-1.6
							c-2.5,0-4.7,0.1-6.8,0.1c-2.1,0.1-4,0.1-6,0.2c-0.3,0-0.6,0-0.8,0.1c-0.3,0-0.6,0.1-1.2,0.1l-0.2,0l-0.4,0.1l-0.2,0.1
							l-0.4,0.1l-0.4,0.1c-0.1,0-0.4,0.2-0.6,0.2c-0.2,0.1-0.5,0.2-0.7,0.3s-0.4,0.3-0.6,0.4c-0.5,0.3-2.1,1.7-2.6,3.1
							c-0.7,1.5-0.9,2.8-0.7,4.2c0.1,1.5,0.8,3.1,1.7,4.1c0.9,1,0.7,0.7,1.1,1.1c0.3,0.2,0.6,0.5,0.9,0.7c0.4,0.2,0.7,0.4,0.7,0.4
							l0.3,0.1c0.2,0.1,0.4,0.2,0.6,0.2l0.3,0.1l0.5,0.1c0.5,0.1,0.7,0.2,0.9,0.2l0.5,0.1c1.2,0.1,1.9,0.2,2.8,0.2
							c1.6,0.1,2.9,0.2,4.2,0.2c5,0.2,8.1,0.1,10.8,0.1c5.2-0.1,8.3-0.4,19.1-0.2c-8.5,0.4-1.7,0.7,6.7,1c8.4,0.3,18.5,0.5,16.5,0.8
							c49.4,1.2,99.1,1.8,150.1,2.9c-1-0.2-15.6-0.7-6.7-0.7c18.8,0.2,27.7,0.9,30.2,1.2c24.2,0.4,38.2,0.2,46.2,0
							c-10.5-0.1-11.5-0.3-9.5-0.6c24.2,0.4,17.5,1.1,40.5,0.9c6,0.8-25.5-0.2-23.3,0.5c21.4,0.5,34.8,0.4,50.4,0.4
							c3.5,0.5-14.3-0.2-2.5,0.4c33.1,0.3,73,0.6,97.8,0.9l6.7,0.7c15.9,0.3,26.4,0.3,33.8,0.2c8.6,0.4,1.9,0.4-6.4,0.3
							c21.3,0.4,47.5,0.5,59.6,0.6c-1.9,0.3-12.1-0.2-15.7,0c26.7,0.6,60.5,0.1,78.1,1.2c-2.3,0-4.9,0-7.3,0
							c39.6,0.8,74.2,1,117.2,1.7c39.4,1.4,12.7-0.6,51.6,0.2c0.2,1.5,52.9,1.1,69.2,1.7l-5.2-0.3c19.1-0.2,45.6,0.8,58.9,1.5
							c29,0.7,72.3,1.5,101.3,1.6l-5.8,0.2c23.9,0.1,38.8,0.9,62.8,1.1c-0.7,0.1-9.6,0.1-0.3,0.4c28.8,0.8,57.8,1.5,86.8,2.4
							c7.2,0.3,14.5,0.5,21.7,0.8c3.6,0.1,7.2,0.3,10.8,0.5c1.8,0.1,3.6,0.2,5.3,0.4l1.2,0.1c0.4,0,0.8,0.1,1,0.1l0,0
							c0-0.1,0,0.2,0-0.2l0.3-1.2c0.1-0.4,0.2-0.8,0.3-1.1c0.3-1.3,0.7-2.4,1-2.6c0.1,0,0,0-0.1-0.1c-0.1-0.1-0.2-0.2-0.2-0.4
							c-0.1-0.2-0.2-0.5-0.3-0.7c-0.1-0.2-0.1-0.5-0.2-0.9c-0.1-0.3-0.2-0.7-0.2-1c-0.1-0.3-0.1-0.7-0.2-1.1
							c-0.1-0.3-0.2-1.1-0.2-0.9l0,0c-0.1,0-0.6,0.1-0.9,0.1c-1.6,0.1-3.4,0.2-5.2,0.3l-5.4,0.2l-10.9,0.3l-21.8,0.3
							c-58.1,0.6-116.3,0.7-173.8,0.5c-220.2-0.8-494.3-2.9-711-3.2C585.6,559.7,482.7,565.2,498.2,567.8z"/>
						<path class="st1" d="M864.1,541.7c-1,0-1.9,0-3.1-0.1C862.1,541.7,863.1,541.7,864.1,541.7z"/>
						<path class="st1" d="M364.8,541.4c-2.4-0.1-4.9-0.2-7.3-0.5C359.9,541.2,362.3,541.3,364.8,541.4z"/>
						<path class="st1" d="M806.1,548.8l-9.2-0.1C800.8,548.8,803.7,548.8,806.1,548.8z"/>
						<path class="st1" d="M1475.9,559.6c-3.5-0.5,14.7-0.7-0.9-1.6c-27.4-0.9-33.2-0.6-39.3-0.3c-6,0.3-12.3,0.5-40.5-0.3l28.6,1.2
							c-1.5-0.8,18.6-0.7,40.5-0.1l6.7,0.8c-3.8,0-7.8,0.1-12,0C1467.4,559.6,1465.9,559.1,1475.9,559.6z"/>
						<path class="st1" d="M1457.1,559.2c0.4,0,0.9,0.1,1.3,0.1c0.2,0,0.5,0,0.7,0C1458.4,559.3,1457.9,559.2,1457.1,559.2z"/>
					</g>
				</g>
			</g>
		</g>
	</g>
</g>
<g id="cult-text">
	<rect x="490.3" y="911.9" class="st2" width="939" height="68.3"/>
	<text transform="matrix(1 0 0 1 511.6201 947.8203)" class="st3 st4 st5">Yes, this is a cult.</text>
</g>
</svg>
